<svg xmlns="http://www.w3.org/2000/svg" version="1.1" xmlns:xlink="http://www.w3.org/1999/xlink" xmlns:svgjs="http://svgjs.dev/svgjs" width="1500" height="1500" viewBox="0 0 1500 1500"><g transform="matrix(1,0,0,1,0.6973684210527153,0.6973684210526017)"><svg viewBox="0 0 342 342" data-background-color="#ffffff" preserveAspectRatio="xMidYMid meet" height="1500" width="1500" xmlns="http://www.w3.org/2000/svg" xmlns:xlink="http://www.w3.org/1999/xlink"><g id="tight-bounds" transform="matrix(1,0,0,1,-0.15900000000002024,-0.15899999999999181)"><svg viewBox="0 0 342.3174981454395 342.3174981454395" height="342.3174981454395" width="342.3174981454395"><g><svg></svg></g><g><svg viewBox="0 0 342.3174981454395 342.3174981454395" height="342.3174981454395" width="342.3174981454395"><g><path d="M0 171.159c0-94.528 76.63-171.159 171.159-171.159 94.528 0 171.159 76.63 171.159 171.159 0 94.528-76.63 171.159-171.159 171.159-94.528 0-171.159-76.63-171.159-171.159zM171.159 335.719c90.884 0 164.56-73.676 164.56-164.56 0-90.884-73.676-164.56-164.56-164.561-90.884 0-164.56 73.676-164.561 164.561 0 90.884 73.676 164.56 164.561 164.56z" data-fill-palette-color="tertiary" fill="#0080ff" stroke="transparent"></path><ellipse rx="164.31239910981097" ry="164.31239910981097" cx="171.15874907271976" cy="171.15874907271976" fill="#0080ff" stroke="transparent" stroke-width="0" fill-opacity="1" data-fill-palette-color="tertiary"></ellipse></g><g transform="matrix(1,0,0,1,64.76834731455445,75.3795284591412)"><svg viewBox="0 0 212.78080351633062 191.55844122715712" height="191.55844122715712" width="212.78080351633062"><g><svg viewBox="0 0 212.78080351633062 191.55844122715712" height="191.55844122715712" width="212.78080351633062"><g><svg viewBox="0 0 213.1584412271571 191.8984140538363" height="191.55844122715712" width="212.78080351633062"><g transform="matrix(1,0,0,1,0,118.60091846782721)"><svg viewBox="0 0 213.1584412271571 73.29749558600906" height="73.29749558600906" width="213.1584412271571"><g id="textblocktransform"><svg viewBox="0 0 213.1584412271571 73.29749558600906" height="73.29749558600906" width="213.1584412271571" id="textblock"><g><svg viewBox="0 0 213.1584412271571 73.29749558600906" height="73.29749558600906" width="213.1584412271571"><g transform="matrix(1,0,0,1,0,0)"><svg width="213.1584412271571" viewBox="2.25 -36.5 123.45 42.45" height="73.29749558600906" data-palette-color="#ffffff"><path d="M26.8-19.25L26.8-19.25Q27.7-19.25 28.1-19.65 28.5-20.05 29.35-21.35L29.35-21.35 35.45-30.65Q35.75-31.15 36.13-31.33 36.5-31.5 36.9-31.5L36.9-31.5 37.75-31.5Q38.45-31.5 38.78-31.13 39.1-30.75 39.1-29.95L39.1-29.95 39.1-4.5 38.6-4.5 38.6-29.95Q38.6-30.35 38.43-30.68 38.25-31 37.75-31L37.75-31 37-31Q36.65-31 36.4-30.9 36.15-30.8 35.85-30.3L35.85-30.3 29.75-21.1Q28.85-19.75 28.38-19.25 27.9-18.75 26.8-18.75L26.8-18.75Q25.7-18.75 25.23-19.25 24.75-19.75 23.85-21.1L23.85-21.1 17.75-30.3Q17.45-30.8 17.18-30.9 16.9-31 16.55-31L16.55-31 15.8-31Q15.3-31 15.15-30.68 15-30.35 15-29.95L15-29.95 15-4.5 14.5-4.5 14.5-29.95Q14.5-30.75 14.83-31.13 15.15-31.5 15.8-31.5L15.8-31.5 16.65-31.5Q17.05-31.5 17.45-31.33 17.85-31.15 18.15-30.65L18.15-30.65 24.25-21.35Q25.1-20.05 25.5-19.65 25.9-19.25 26.8-19.25ZM11 0L18.45 0Q19.4 0 19.83-0.43 20.25-0.85 20.25-1.8L20.25-1.8 20.25-19.4 23.2-13.95Q23.65-13.1 24.28-12.73 24.9-12.35 25.85-12.35L25.85-12.35 27.85-12.35Q28.8-12.35 29.43-12.73 30.05-13.1 30.5-13.95L30.5-13.95 33.45-19.4 33.45-1.8Q33.45-0.85 33.88-0.43 34.3 0 35.25 0L35.25 0 42.95 0Q43.9 0 44.33-0.43 44.75-0.85 44.75-1.8L44.75-1.8 44.75-34.2Q44.75-35.15 44.33-35.58 43.9-36 42.95-36L42.95-36 34.85-36Q34.05-36 33.52-35.65 33-35.3 32.55-34.5L32.55-34.5 28.1-26.35Q27.85-25.9 27.68-25.7 27.5-25.5 27.2-25.5L27.2-25.5 26.75-25.5Q26.45-25.5 26.28-25.7 26.1-25.9 25.85-26.35L25.85-26.35 21.35-34.5Q20.9-35.3 20.38-35.65 19.85-36 19.05-36L19.05-36 11-36Q10.05-36 9.63-35.58 9.2-35.15 9.2-34.2L9.2-34.2 9.2-1.8Q9.2-0.85 9.63-0.43 10.05 0 11 0L11 0ZM20.05 0.05L20.05 0.05 13.55 5.45Q13.35 5.65 12.93 5.8 12.5 5.95 12 5.95L12 5.95 4.55 5.95Q3.35 5.95 2.8 5.4 2.25 4.85 2.25 3.65L2.25 3.65 2.25-28.75Q2.25-29.4 2.43-29.85 2.6-30.3 2.95-30.6L2.95-30.6 9.4-36.05Q9.65-36.25 10.08-36.38 10.5-36.5 11-36.5L11-36.5 19.05-36.5Q20-36.5 20.63-36.1 21.25-35.7 21.8-34.75L21.8-34.75 25.2-28.5 25.65-29.3Q25.85-29.65 26.08-29.98 26.3-30.3 26.55-30.5L26.55-30.5 33-35.9Q33.4-36.2 33.83-36.35 34.25-36.5 34.85-36.5L34.85-36.5 42.95-36.5Q44.15-36.5 44.7-35.95 45.25-35.4 45.25-34.2L45.25-34.2 45.25-1.8Q45.25-1.15 45.08-0.7 44.9-0.25 44.55 0.05L44.55 0.05 38.05 5.45Q37.85 5.65 37.43 5.8 37 5.95 36.5 5.95L36.5 5.95 28.8 5.95Q27.55 5.95 27.03 5.4 26.5 4.85 26.5 3.65L26.5 3.65 26.5-9.55 23.55-7.1Q23.15-6.75 22.63-6.58 22.1-6.4 21.4-6.4L21.4-6.4 20.75-6.4 20.75-1.8Q20.75-1.15 20.58-0.7 20.4-0.25 20.05 0.05ZM63.25-31.1L63.25-31.1 81.65-10.4 81.65-31.5 82.15-31.5 82.15-4.5 81.65-4.5 81.65-9.65 62.75-30.85Q62.7-30.9 62.62-30.95 62.55-31 62.5-31L62.5-31Q62.45-31 62.42-30.95 62.4-30.9 62.4-30.85L62.4-30.85 62.4-4.5 61.9-4.5 61.9-30.95Q61.9-31.25 62.1-31.4 62.3-31.55 62.5-31.55L62.5-31.55Q62.7-31.55 62.85-31.45 63-31.35 63.25-31.1ZM58.45 0L65.95 0Q66.9 0 67.32-0.43 67.75-0.85 67.75-1.8L67.75-1.8 67.75-18.3 76.3-7.95 76.3-1.8Q76.3-0.85 76.72-0.43 77.15 0 78.1 0L78.1 0 85.6 0Q86.55 0 86.97-0.43 87.4-0.85 87.4-1.8L87.4-1.8 87.4-34.2Q87.4-35.15 86.97-35.58 86.55-36 85.6-36L85.6-36 78.1-36Q77.15-36 76.72-35.58 76.3-35.15 76.3-34.2L76.3-34.2 76.3-23.55 66.6-34.65Q65.95-35.4 65.27-35.7 64.6-36 63.65-36L63.65-36 58.45-36Q57.5-36 57.07-35.58 56.65-35.15 56.65-34.2L56.65-34.2 56.65-1.8Q56.65-0.85 57.07-0.43 57.5 0 58.45 0L58.45 0ZM67.55 0.05L67.55 0.05 61.05 5.45Q60.85 5.65 60.42 5.8 60 5.95 59.5 5.95L59.5 5.95 52 5.95Q50.8 5.95 50.25 5.4 49.7 4.85 49.7 3.65L49.7 3.65 49.7-28.75Q49.7-29.4 49.87-29.85 50.05-30.3 50.4-30.6L50.4-30.6 56.85-36.05Q57.1-36.25 57.52-36.38 57.95-36.5 58.45-36.5L58.45-36.5 63.65-36.5Q64.75-36.5 65.5-36.15 66.25-35.8 67-35L67-35 70.45-31 76.5-36.05Q76.75-36.25 77.17-36.38 77.6-36.5 78.1-36.5L78.1-36.5 85.6-36.5Q86.8-36.5 87.35-35.95 87.9-35.4 87.9-34.2L87.9-34.2 87.9-1.8Q87.9-1.15 87.72-0.7 87.55-0.25 87.2 0.05L87.2 0.05 80.7 5.45Q80.5 5.65 80.07 5.8 79.65 5.95 79.15 5.95L79.15 5.95 71.65 5.95Q70.45 5.95 69.9 5.4 69.35 4.85 69.35 3.65L69.35 3.65 69.35-2.3 68.25-3.65 68.25-1.8Q68.25-1.15 68.07-0.7 67.9-0.25 67.55 0.05ZM102.4 5.95L102.4 5.95 94.65 5.95Q93.45 5.95 92.9 5.4 92.35 4.85 92.35 3.65L92.35 3.65 92.35-28.75Q92.35-29.4 92.52-29.85 92.7-30.3 93.05-30.6L93.05-30.6 99.5-36.05Q99.75-36.25 100.17-36.38 100.6-36.5 101.1-36.5L101.1-36.5 123.4-36.5Q124.6-36.5 125.15-35.95 125.7-35.4 125.7-34.2L125.7-34.2 125.7-28.25Q125.7-27.6 125.52-27.15 125.35-26.7 125-26.4L125-26.4 119.4-21.75Q120.55-21.75 121.1-21.2 121.65-20.65 121.65-19.45L121.65-19.45 121.65-13.45Q121.65-12.8 121.47-12.35 121.3-11.9 120.95-11.6L120.95-11.6 114.45-6.2Q114.25-6 113.82-5.85 113.4-5.7 112.9-5.7L112.9-5.7 111.15-5.7 111.15-1.8Q111.15-1.15 110.97-0.7 110.8-0.25 110.45 0.05L110.45 0.05 103.95 5.45Q103.75 5.65 103.32 5.8 102.9 5.95 102.4 5.95ZM101.1 0L108.85 0Q109.8 0 110.22-0.43 110.65-0.85 110.65-1.8L110.65-1.8 110.65-11.65 119.35-11.65Q120.3-11.65 120.72-12.08 121.15-12.5 121.15-13.45L121.15-13.45 121.15-19.45Q121.15-20.4 120.72-20.83 120.3-21.25 119.35-21.25L119.35-21.25 110.65-21.25 110.65-26.45 123.4-26.45Q124.35-26.45 124.77-26.88 125.2-27.3 125.2-28.25L125.2-28.25 125.2-34.2Q125.2-35.15 124.77-35.58 124.35-36 123.4-36L123.4-36 101.1-36Q100.15-36 99.72-35.58 99.3-35.15 99.3-34.2L99.3-34.2 99.3-1.8Q99.3-0.85 99.72-0.43 100.15 0 101.1 0L101.1 0ZM105.25-4.5L104.75-4.5 104.75-31.5 120.7-31.5 120.7-31 105.25-31 105.25-16.7 116.65-16.7 116.65-16.2 105.25-16.2 105.25-4.5Z" opacity="1" transform="matrix(1,0,0,1,0,0)" fill="#ffffff" class="wordmark-text-0" data-fill-palette-color="quaternary" id="text-0"></path></svg></g></svg></g></svg></g></svg></g><g transform="matrix(1,0,0,1,49.08980541975933,0)"><svg viewBox="0 0 114.97883038763845 101.29713889986454" height="101.29713889986454" width="114.97883038763845"><g><svg xmlns="http://www.w3.org/2000/svg" xmlns:xlink="http://www.w3.org/1999/xlink" version="1.1" x="0" y="0" viewBox="6.3 11.5 87.4 77" style="enable-background:new 0 0 100 100;" xml:space="preserve" height="101.29713889986454" width="114.97883038763845" class="icon-icon-0" data-fill-palette-color="quaternary" id="icon-0"><path d="M72.3 12.3L72.3 12.3 72.3 12.3l-0.4-0.8H28.2L6.3 50l21.8 38.5h43.7L93.7 50 72.3 12.3zM33.3 25.3L9.9 47.7l18.6-32.8L33.3 25.3zM70.7 14.8l6.4 35.7L36.9 25.8 70.7 14.8zM35.5 27.3l41 25.2-41 23.3V27.3zM77 54.5l-7.2 30.8-32.6-8.1L77 54.5zM33.5 75L9.9 50.5l23.6-22.7V75zM33.2 77.6l-4.6 7.7L11.5 55.1 33.2 77.6zM35 78.6l31.4 7.9H30.2L35 78.6zM79.3 53.3l11.6-2.5L72.1 84 79.3 53.3zM90.7 48.9l-11.4 2.5-5.9-33.1L90.7 48.9zM35 24.3l-5-10.8h38.2L35 24.3z" fill="#ffffff" data-fill-palette-color="quaternary"></path></svg></g></svg></g><g></g></svg></g></svg></g></svg></g></svg></g><defs></defs></svg><rect width="342.3174981454395" height="342.3174981454395" fill="none" stroke="none" visibility="hidden"></rect></g></svg></g></svg>